<?xml version="1.0" encoding="UTF-8"?>
<svg width="16px" height="41px" viewBox="0 0 16 41" version="1.1" xmlns="http://www.w3.org/2000/svg" xmlns:xlink="http://www.w3.org/1999/xlink">
    <!-- Generator: Sketch 47.1 (45422) - http://www.bohemiancoding.com/sketch -->
    <title>icon-male</title>
    <desc>Created with Sketch.</desc>
    <defs></defs>
    <g id="map" stroke="none" stroke-width="1" fill="none" fill-rule="evenodd">
        <g id="地图页-区域洞察-客流评估" transform="translate(-840.000000, -975.000000)" fill="#2D8CF0">
            <g id="右边栏" transform="translate(780.000000, 63.000000)">
                <g id="人群画像" transform="translate(24.000000, 676.000000)">
                    <g id="性别比例" transform="translate(0.000000, 49.000000)">
                        <g id="数值" transform="translate(36.000000, 184.000000)">
                            <g id="male">
                                <path d="M12.1450948,10.010305 C14.6628195,10.010305 16,12.1183017 16,13.137263 L16,13.4076669 L16,13.9154988 L16,25.1694147 C16,25.9047815 15.3569662,26.4991756 14.5729596,26.4991756 C13.7856554,26.4991756 13.1492168,25.9047815 13.1492168,25.1694147 L13.1492168,15.4315746 L12.1450948,15.4315746 L12.1450948,24.659934 L12.1450948,24.7646331 L12.1450948,41.8042045 C12.1450948,42.8742786 11.3140973,43.7407255 10.2959604,43.7407255 C9.27287716,43.7407255 8.44352844,42.8742786 8.44352844,41.8042045 L8.44352844,27.1001649 L7.52844188,27.1001649 L7.52844188,41.8042045 C7.52844188,42.8742786 6.69744435,43.7407255 5.67353669,43.7407255 C4.65292663,43.7407255 3.82522671,42.8742786 3.82522671,41.8042045 L3.82522671,25.1356142 C3.80626546,25.0119538 3.79142622,24.8899423 3.79142622,24.7646331 L3.79142622,15.4315746 L2.65787304,15.4315746 L2.65787304,25.1694147 C2.65787304,25.9047815 2.06347898,26.4991756 1.32811212,26.4991756 C0.596867271,26.4991756 0,25.9047815 0,25.1694147 L0,13.9154988 L0,13.4076669 L0,13.293075 C0,12.4530091 1.10222589,10.0507007 4.08408904,9.96661171 L12.1450948,10.010305 Z M8.00057708,9.39076669 C6.23553174,9.39076669 4.80272053,7.95960429 4.80272053,6.19373454 C4.80272053,4.4286892 6.23553174,3 8.00057708,3 C9.76397362,3 11.1967848,4.4286892 11.1967848,6.19373454 C11.1967848,7.95960429 9.76397362,9.39076669 8.00057708,9.39076669 Z" id="icon-male"></path>
                            </g>
                        </g>
                    </g>
                </g>
            </g>
        </g>
    </g>
</svg>