<?xml version="1.0" encoding="UTF-8"?>
<svg width="19px" height="41px" viewBox="0 0 19 41" version="1.1" xmlns="http://www.w3.org/2000/svg" xmlns:xlink="http://www.w3.org/1999/xlink">
    <!-- Generator: Sketch 47.1 (45422) - http://www.bohemiancoding.com/sketch -->
    <title>icon-female</title>
    <desc>Created with Sketch.</desc>
    <defs></defs>
    <g id="map" stroke="none" stroke-width="1" fill="none" fill-rule="evenodd">
        <g id="地图页-区域洞察-客流评估" transform="translate(-946.000000, -975.000000)" fill="#14E3C5">
            <g id="右边栏" transform="translate(780.000000, 63.000000)">
                <g id="人群画像" transform="translate(24.000000, 676.000000)">
                    <g id="性别比例" transform="translate(0.000000, 49.000000)">
                        <g id="数值" transform="translate(36.000000, 184.000000)">
                            <g id="female" transform="translate(106.000000, 0.000000)">
                                <path d="M10.0016411,9 C8.34245077,9 7,7.65683755 7,5.99797105 C7,4.34478561 8.34245077,3 10.0016411,3 C11.6575492,3 13,4.34478561 13,5.99797105 C13,7.65683755 11.6575492,9 10.0016411,9 Z M18.9293504,22.5131203 C19.1680283,23.2350794 18.7819563,24.0148959 18.0726223,24.253872 C17.3599384,24.496202 16.5911442,24.1062938 16.3549787,23.3868502 L13.5050805,14.7711354 C13.4204964,14.7820361 13.3308875,14.7879057 13.243791,14.7879057 L12.994226,14.7879057 L17.2837289,30.2198875 L13.1407827,30.2198875 L13.1407827,42.4068265 C13.1407827,43.2830719 12.4364734,44 11.5705332,44 C10.6970557,44 9.99023406,43.2830719 9.99023406,42.4068265 L9.99023406,30.2198875 L9.07572076,30.2198875 L9.07572076,42.4068265 C9.07572076,43.2830719 8.37141152,44 7.49793406,44 C6.62948141,44 5.92768456,43.2830719 5.92768456,42.4068265 L5.92768456,30.2198875 L1.76380163,30.2198875 L5.82886353,14.7879057 L5.59688534,14.7879057 C5.50727643,14.7879057 5.41599259,14.7820361 5.32889609,14.7711354 L2.65402841,23.3952353 C2.43042488,24.1188715 1.66665553,24.5213574 0.951459223,24.2966361 C0.23375052,24.0677222 -0.16404602,23.2962908 0.0645823072,22.5701391 L3.43287216,11.6963105 C3.45380882,11.6191674 3.47725788,11.5478939 3.50154441,11.4774588 L3.511594,11.4497879 C3.55430479,11.3022097 3.6288393,11.1663707 3.71091101,11.047302 C4.10870755,10.4142251 4.80129226,10 5.59688534,10 L13.243791,10 C14.3986572,10 15.3525314,10.8879846 15.4681018,12.0283614 L18.9293504,22.5131203 Z" id="icon-female"></path>
                            </g>
                        </g>
                    </g>
                </g>
            </g>
        </g>
    </g>
</svg>